<?xml version="1.0" encoding="UTF-8" standalone="no"?>
<!-- Created with Inkscape (http://www.inkscape.org/) -->

<svg
   version="1.1"
   id="svg132"
   width="213.65413"
   height="213.65413"
   viewBox="0 0 213.65413 213.65413"
   sodipodi:docname="pc_logo.svg"
   inkscape:version="1.2.2 (b0a8486541, 2022-12-01)"
   xmlns:inkscape="http://www.inkscape.org/namespaces/inkscape"
   xmlns:sodipodi="http://sodipodi.sourceforge.net/DTD/sodipodi-0.dtd"
   xmlns="http://www.w3.org/2000/svg"
   xmlns:svg="http://www.w3.org/2000/svg">
  <defs
     id="defs136" />
  <sodipodi:namedview
     id="namedview134"
     pagecolor="#ffffff"
     bordercolor="#666666"
     borderopacity="1.0"
     inkscape:showpageshadow="2"
     inkscape:pageopacity="0.0"
     inkscape:pagecheckerboard="0"
     inkscape:deskcolor="#d1d1d1"
     showgrid="false"
     inkscape:zoom="3.4663211"
     inkscape:cx="103.56802"
     inkscape:cy="106.74141"
     inkscape:window-width="1920"
     inkscape:window-height="1143"
     inkscape:window-x="1920"
     inkscape:window-y="255"
     inkscape:window-maximized="1"
     inkscape:current-layer="g142">
    <inkscape:page
       x="0"
       y="0"
       id="page138"
       width="213.65413"
       height="213.65413" />
  </sodipodi:namedview>
  <g
     id="g140"
     inkscape:groupmode="layer"
     inkscape:label="Page 1"
     transform="matrix(1.3333333,0,0,-1.3333333,-21.676533,235.33066)">
    <g
       id="g142"
       transform="scale(0.1)">
      <path
         d="m 963.594,1744.14 c 430.156,0 780.556,-350.49 780.556,-780.351 0,-429.871 -350.4,-780.715 -780.556,-780.715 -429.77,0 -780.168,350.844 -780.168,780.715 0,429.861 350.398,780.351 780.168,780.351 v 0"
         style="fill:#1a5dad;fill-opacity:1;fill-rule:evenodd;stroke:none"
         id="path146" />
      <path
         d="m 396.906,546.336 72.543,59.48 23.324,-28.461 c 5.868,-7.167 9.477,-12.921 10.829,-17.222 1.347,-4.313 1.168,-8.805 -0.579,-13.485 -1.738,-4.679 -4.753,-8.804 -9.054,-12.324 -5.449,-4.441 -11.149,-6.679 -17.117,-6.621 -5.973,0.016 -11.829,2.606 -17.559,7.731 0.543,-4.43 0.484,-8.512 -0.168,-12.207 -0.656,-3.704 -2.473,-9.493 -5.469,-17.313 l -7.422,-19.785 -13.254,16.184 7.84,22.683 c 2.758,8.098 4.34,13.367 4.754,15.867 0.41,2.469 0.293,4.649 -0.332,6.524 -0.637,1.883 -2.238,4.386 -4.785,7.508 l -2.254,2.734 -30.242,-24.785 z m 52.84,20.773 8.215,-10.039 c 5.344,-6.504 8.957,-10.3 10.894,-11.468 1.915,-1.118 3.985,-1.536 6.188,-1.247 2.219,0.278 4.402,1.305 6.598,3.114 2.441,1.992 3.929,4.211 4.461,6.672 0.507,2.445 0.066,4.918 -1.336,7.449 -0.735,1.242 -3.352,4.609 -7.86,10.086 l -8.664,10.586 -18.496,-15.153"
         style="fill:#ffffff;fill-opacity:1;fill-rule:nonzero;stroke:none"
         id="path148" />
      <path
         d="m 505.387,459.703 9.965,-13.512 c -6.051,-3.339 -11.93,-4.711 -17.629,-4.089 -5.684,0.632 -11.047,3.281 -16.075,7.992 -7.921,7.453 -11.164,15.781 -9.695,24.996 1.238,7.351 5.074,14.453 11.527,21.351 7.704,8.196 15.723,12.786 24.059,13.723 8.32,0.949 15.508,-1.418 21.563,-7.101 6.793,-6.375 9.882,-13.84 9.234,-22.426 -0.633,-8.535 -5.754,-17.762 -15.348,-27.657 l -30.258,28.411 c -3.558,-3.993 -5.433,-7.934 -5.613,-11.852 -0.172,-3.879 1.141,-7.137 3.91,-9.758 1.879,-1.769 4,-2.683 6.344,-2.769 2.332,-0.074 5.004,0.824 8.016,2.691 z m 13.062,12.586 c 3.485,3.875 5.301,7.629 5.446,11.227 0.148,3.574 -1.016,6.547 -3.461,8.843 -2.633,2.457 -5.778,3.45 -9.465,2.973 -3.68,-0.473 -7.192,-2.547 -10.52,-6.168 l 18,-16.875"
         style="fill:#ffffff;fill-opacity:1;fill-rule:nonzero;stroke:none"
         id="path150" />
      <path
         d="m 521.438,411 13.742,-13.195 c -1.168,-2.133 -1.543,-3.887 -1.168,-5.297 0.508,-1.961 2.129,-3.934 4.843,-5.938 3.489,-2.547 6.52,-3.902 9.094,-4.035 1.739,-0.101 3.512,0.492 5.375,1.742 1.289,0.914 3.137,3.004 5.528,6.25 l 5.972,8.004 c -8.41,-3.039 -15.64,-2.32 -21.707,2.114 -6.769,4.972 -9.847,12.027 -9.23,21.152 0.5,7.183 3.437,14.457 8.816,21.793 6.735,9.164 13.91,14.715 21.531,16.57 7.625,1.871 14.465,0.59 20.5,-3.84 6.223,-4.578 9.168,-11.32 8.852,-20.203 l 5.676,7.75 12.578,-9.226 -36.117,-49.262 c -4.739,-6.445 -8.789,-10.949 -12.118,-13.441 -3.335,-2.454 -6.554,-3.977 -9.66,-4.485 -3.121,-0.531 -6.539,-0.223 -10.261,0.922 -3.727,1.133 -7.852,3.375 -12.379,6.699 -8.578,6.27 -13.473,12.324 -14.723,18.133 -1.25,5.82 -0.066,11.156 3.512,16.066 0.351,0.481 0.801,1.059 1.344,1.727 z m 35.617,23.328 c -4.258,-5.805 -6.36,-10.82 -6.282,-15.031 0.082,-4.215 1.633,-7.422 4.657,-9.645 3.23,-2.382 6.988,-3.004 11.254,-1.867 4.269,1.133 8.39,4.414 12.367,9.844 4.172,5.684 6.191,10.691 6.07,15.023 -0.125,4.313 -1.808,7.68 -5.074,10.082 -3.192,2.325 -6.793,2.887 -10.832,1.692 -4.047,-1.196 -8.09,-4.567 -12.16,-10.098"
         style="fill:#ffffff;fill-opacity:1;fill-rule:nonzero;stroke:none"
         id="path152" />
      <path
         d="m 597.184,363.992 34.836,58.461 14.296,-8.531 -34.839,-58.453 z m 39.507,66.297 8.524,14.301 14.293,-8.531 -8.52,-14.301 -14.297,8.531"
         style="fill:#ffffff;fill-opacity:1;fill-rule:nonzero;stroke:none"
         id="path154" />
      <path
         d="m 649.473,373.457 c 2.562,5.398 6.265,10.051 11.097,13.969 4.848,3.887 10.141,6.113 15.899,6.656 5.754,0.531 11.394,-0.5 16.941,-3.121 8.559,-4.059 14.145,-10.414 16.758,-19.023 2.625,-8.637 1.754,-17.563 -2.594,-26.79 -4.41,-9.293 -10.82,-15.71 -19.234,-19.21 -8.41,-3.504 -16.82,-3.274 -25.195,0.691 -5.188,2.437 -9.543,6.066 -13.036,10.828 -3.511,4.773 -5.332,10.195 -5.453,16.285 -0.121,6.078 1.492,12.66 4.817,19.715 z m 15.004,-8.141 c -2.879,-6.109 -3.762,-11.414 -2.633,-15.898 1.117,-4.508 3.64,-7.672 7.539,-9.516 3.898,-1.867 7.93,-1.773 12.101,0.211 4.172,2.016 7.723,6.094 10.645,12.254 2.851,6.028 3.707,11.285 2.605,15.77 -1.109,4.492 -3.613,7.672 -7.519,9.515 -3.887,1.84 -7.934,1.758 -12.129,-0.211 -4.184,-1.996 -7.734,-6.031 -10.609,-12.125"
         style="fill:#ffffff;fill-opacity:1;fill-rule:nonzero;stroke:none"
         id="path156" />
      <path
         d="m 773.832,286.426 -15.848,5.117 10.707,33.023 c 2.266,6.977 3.391,11.598 3.391,13.883 -0.008,2.266 -0.586,4.211 -1.738,5.844 -1.137,1.617 -2.785,2.781 -4.906,3.457 -2.727,0.898 -5.434,0.879 -8.122,-0.039 -2.703,-0.91 -4.875,-2.598 -6.566,-5.027 -1.66,-2.391 -3.664,-7.219 -6.012,-14.461 l -9.496,-29.285 -15.824,5.125 20.977,64.742 14.699,-4.77 -3.067,-9.48 c 7.547,5.531 15.274,7.035 23.184,4.508 3.473,-1.153 6.437,-2.86 8.879,-5.161 2.449,-2.277 4.07,-4.738 4.855,-7.328 0.797,-2.594 1.051,-5.301 0.766,-8.183 -0.293,-2.864 -1.238,-6.801 -2.867,-11.774 l -13.012,-40.191"
         style="fill:#ffffff;fill-opacity:1;fill-rule:nonzero;stroke:none"
         id="path158" />
      <path
         d="m 844.656,293.078 15.649,-6.09 c -3.328,-6.086 -7.578,-10.383 -12.711,-12.902 -5.164,-2.512 -11.102,-3.121 -17.86,-1.828 -10.691,2.047 -17.867,7.379 -21.55,15.945 -2.879,6.86 -3.426,14.93 -1.645,24.199 2.125,11.055 6.465,19.231 13.004,24.473 6.527,5.254 13.867,7.082 22.02,5.523 9.152,-1.785 15.746,-6.453 19.777,-14.015 4.027,-7.59 4.633,-18.094 1.797,-31.594 l -40.742,7.832 c -0.887,-5.269 -0.372,-9.601 1.57,-12.984 1.937,-3.414 4.773,-5.446 8.512,-6.184 2.543,-0.473 4.828,-0.133 6.851,1.043 2.016,1.184 3.793,3.371 5.328,6.582 z m 4.336,17.59 c 0.867,5.152 0.41,9.305 -1.387,12.395 -1.796,3.121 -4.343,4.988 -7.652,5.64 -3.539,0.676 -6.73,-0.18 -9.582,-2.562 -2.851,-2.352 -4.723,-5.965 -5.609,-10.805 l 24.23,-4.668"
         style="fill:#ffffff;fill-opacity:1;fill-rule:nonzero;stroke:none"
         id="path160" />
      <path
         d="m 932.07,261.43 0.293,93.023 17.43,-0.043 -0.234,-77.172 43.468,-0.148 -0.058,-15.852 -60.899,0.192"
         style="fill:#ffffff;fill-opacity:1;fill-rule:nonzero;stroke:none"
         id="path162" />
      <path
         d="m 1012.54,297.371 c -0.72,5.957 -0.09,11.852 1.92,17.731 2.02,5.886 5.29,10.617 9.86,14.14 4.57,3.524 9.9,5.668 15.98,6.438 9.4,1.152 17.51,-1.207 24.33,-7.094 6.84,-5.891 10.89,-13.883 12.13,-24.016 1.28,-10.207 -0.72,-19.054 -5.96,-26.527 -5.22,-7.477 -12.44,-11.789 -21.65,-12.934 -5.69,-0.691 -11.28,0.028 -16.81,2.211 -5.51,2.129 -9.93,5.75 -13.3,10.836 -3.37,5.055 -5.52,11.477 -6.5,19.215 z m 17.05,1.152 c 0.83,-6.703 2.92,-11.64 6.29,-14.835 3.33,-3.208 7.16,-4.54 11.45,-4 4.28,0.539 7.63,2.75 10.1,6.664 2.47,3.918 3.27,9.269 2.43,16.062 -0.83,6.586 -2.9,11.512 -6.23,14.699 -3.35,3.215 -7.16,4.535 -11.43,4.02 -4.29,-0.543 -7.66,-2.766 -10.13,-6.684 -2.49,-3.926 -3.3,-9.23 -2.48,-15.926"
         style="fill:#ffffff;fill-opacity:1;fill-rule:nonzero;stroke:none"
         id="path164" />
      <path
         d="m 1091.58,340.977 14.72,4.211 2.56,-8.903 c 3.29,8.363 8.58,13.598 15.85,15.703 3.85,1.11 7.46,1.176 10.78,0.27 3.36,-0.887 6.44,-2.832 9.24,-5.778 1.65,4.235 3.76,7.657 6.34,10.262 2.57,2.582 5.61,4.41 9.09,5.391 4.43,1.269 8.49,1.367 12.09,0.293 3.64,-1.055 6.75,-3.262 9.35,-6.602 1.9,-2.484 3.74,-6.82 5.54,-13.066 l 11.97,-41.774 -16.02,-4.593 -10.71,37.379 c -1.86,6.46 -3.6,10.507 -5.24,12.078 -2.17,2.047 -4.81,2.617 -7.87,1.746 -2.24,-0.653 -4.11,-1.973 -5.65,-4.039 -1.53,-2.047 -2.36,-4.606 -2.41,-7.676 -0.05,-3.121 0.82,-7.75 2.57,-13.918 l 9.01,-31.398 -16.01,-4.571 -10.28,35.821 c -1.81,6.359 -3.27,10.375 -4.37,12.062 -1.11,1.688 -2.37,2.82 -3.83,3.363 -1.43,0.559 -3.18,0.559 -5.21,-0.027 -2.46,-0.711 -4.47,-2.063 -6.02,-4.051 -1.56,-1.996 -2.37,-4.472 -2.44,-7.418 -0.07,-2.957 0.79,-7.578 2.6,-13.855 l 9.08,-31.746 -15.99,-4.59 -18.74,65.426"
         style="fill:#ffffff;fill-opacity:1;fill-rule:nonzero;stroke:none"
         id="path166" />
      <path
         d="m 1229.96,313.91 -39.47,85.102 15.09,7.019 14.21,-30.636 c 2,7.875 6.21,13.293 12.59,16.257 6.96,3.223 13.95,3.18 21.03,-0.152 7.07,-3.324 12.97,-10.098 17.7,-20.285 4.88,-10.539 6.33,-19.723 4.32,-27.574 -1.99,-7.84 -6.3,-13.286 -12.92,-16.379 -3.27,-1.52 -6.89,-2.121 -10.9,-1.813 -3.98,0.293 -7.92,1.641 -11.82,4.016 l 4.18,-9.051 z m -0.03,39.028 c 2.97,-6.403 6.12,-10.715 9.42,-12.918 4.62,-3.129 9.13,-3.661 13.49,-1.653 3.36,1.551 5.48,4.422 6.4,8.61 0.96,4.175 -0.12,9.589 -3.22,16.23 -3.27,7.07 -6.8,11.606 -10.64,13.637 -3.82,2.011 -7.61,2.164 -11.33,0.453 -3.62,-1.672 -5.93,-4.625 -6.93,-8.789 -1,-4.168 -0.07,-9.344 2.81,-15.57"
         style="fill:#ffffff;fill-opacity:1;fill-rule:nonzero;stroke:none"
         id="path168" />
      <path
         d="m 1295.89,400.188 -14.18,-5.415 c -2.07,6.489 -2.17,12.192 -0.34,17.082 1.82,4.852 6.21,9.446 13.11,13.743 6.28,3.918 11.45,6.023 15.55,6.32 4.06,0.273 7.51,-0.418 10.29,-2.125 2.79,-1.707 6.27,-5.863 10.38,-12.504 l 10.86,-17.957 c 3.14,-5.055 5.7,-8.668 7.67,-10.797 1.94,-2.144 4.4,-4.176 7.38,-6.16 l -13.91,-8.637 c -1,0.774 -2.4,1.992 -4.16,3.645 -0.8,0.769 -1.34,1.254 -1.6,1.472 -0.84,-4.023 -2.21,-7.535 -4.19,-10.503 -1.93,-2.981 -4.47,-5.434 -7.56,-7.36 -5.48,-3.402 -10.78,-4.484 -15.96,-3.234 -5.15,1.254 -9.26,4.347 -12.34,9.281 -2.01,3.246 -3.1,6.606 -3.25,10.059 -0.18,3.437 0.64,6.629 2.37,9.609 1.74,2.973 4.73,6.477 8.97,10.512 5.72,5.41 9.5,9.488 11.31,12.25 l -0.96,1.496 c -1.83,2.984 -3.81,4.672 -5.94,5.109 -2.11,0.41 -5.03,-0.519 -8.73,-2.812 -2.51,-1.582 -4.13,-3.313 -4.87,-5.27 -0.74,-1.961 -0.7,-4.566 0.1,-7.804 z m 26.61,-0.719 c -1.39,-1.77 -3.75,-4.313 -7.05,-7.629 -3.34,-3.305 -5.32,-5.785 -5.97,-7.387 -0.95,-2.535 -0.75,-4.887 0.59,-7.055 1.34,-2.148 3.18,-3.5 5.61,-4.16 2.43,-0.633 4.78,-0.254 7.03,1.157 2.52,1.554 4.36,3.945 5.52,7.175 0.84,2.43 0.92,4.797 0.21,7.106 -0.46,1.512 -1.81,4.113 -4.04,7.746 l -1.9,3.047"
         style="fill:#ffffff;fill-opacity:1;fill-rule:nonzero;stroke:none"
         id="path170" />
      <path
         d="m 1390.64,407.879 -13.19,-10.18 -41.54,53.906 12.25,9.442 5.9,-7.652 c -0.71,5.226 -0.67,9.031 0.15,11.468 0.81,2.41 2.26,4.422 4.39,6.067 2.98,2.304 6.54,3.64 10.72,3.98 l 5.54,-15.531 c -3.43,-0.133 -6.1,-0.953 -7.99,-2.426 -1.86,-1.43 -3,-3.18 -3.44,-5.254 -0.42,-2.086 0.1,-4.863 1.58,-8.304 1.49,-3.442 5.76,-9.747 12.8,-18.899 l 12.83,-16.617"
         style="fill:#ffffff;fill-opacity:1;fill-rule:nonzero;stroke:none"
         id="path172" />
      <path
         d="m 1467.54,475.984 -11.19,-10.664 -6.88,7.223 c 0.85,-4.559 0.67,-8.766 -0.54,-12.543 -1.21,-3.766 -3.06,-6.906 -5.62,-9.348 -5.2,-4.949 -11.82,-6.918 -19.89,-5.886 -8.05,1.011 -15.95,5.589 -23.76,13.734 -7.95,8.359 -12.19,16.41 -12.71,24.219 -0.53,7.773 1.95,14.277 7.46,19.566 5.07,4.797 11.61,6.703 19.67,5.649 l -23.33,24.461 12.07,11.488 z m -56.36,-4.836 c 5.03,-5.261 9.33,-8.453 12.87,-9.523 5.2,-1.594 9.51,-0.738 12.95,2.563 2.72,2.605 3.82,6.105 3.3,10.488 -0.51,4.363 -3.19,9.101 -8.05,14.191 -5.39,5.668 -10.22,8.867 -14.45,9.571 -4.24,0.734 -7.82,-0.309 -10.72,-3.071 -2.83,-2.703 -4.02,-6.179 -3.58,-10.441 0.45,-4.293 3,-8.899 7.68,-13.778"
         style="fill:#ffffff;fill-opacity:1;fill-rule:nonzero;stroke:none"
         id="path174" />
      <path
         d="m 1429.13,548.855 -12.58,10.915 10.91,12.585 12.58,-10.929 z m 58.28,-50.562 -51.4,44.586 10.93,12.601 51.4,-44.601 -10.93,-12.586"
         style="fill:#ffffff;fill-opacity:1;fill-rule:nonzero;stroke:none"
         id="path176" />
      <path
         d="m 1486.57,571.66 -11.09,-10.418 c -4.36,5.25 -6.62,10.461 -6.79,15.656 -0.15,5.204 2.14,11.114 6.9,17.711 4.34,6.024 8.32,9.926 11.98,11.766 3.64,1.82 7.1,2.453 10.33,1.957 3.24,-0.516 8,-3.047 14.37,-7.613 l 16.85,-12.496 c 4.84,-3.493 8.57,-5.86 11.18,-7.071 2.63,-1.234 5.68,-2.175 9.18,-2.882 l -9.6,-13.29 c -1.21,0.352 -2.92,0.938 -5.21,1.809 -1.03,0.402 -1.69,0.645 -2.04,0.754 0.75,-4.07 0.82,-7.824 0.15,-11.328 -0.67,-3.465 -2.08,-6.703 -4.22,-9.684 -3.78,-5.234 -8.27,-8.25 -13.53,-9.043 -5.25,-0.785 -10.23,0.492 -14.94,3.891 -3.09,2.234 -5.39,4.93 -6.83,8.07 -1.46,3.121 -1.96,6.371 -1.47,9.77 0.49,3.414 1.92,7.777 4.28,13.136 3.25,7.184 5.2,12.411 5.83,15.614 l -1.45,1.051 c -2.83,2.054 -5.32,2.867 -7.44,2.453 -2.14,-0.422 -4.46,-2.387 -7.02,-5.946 -1.72,-2.394 -2.54,-4.621 -2.5,-6.711 0.07,-2.078 1.1,-4.464 3.08,-7.156 z m 24.89,9.43 c -0.62,-2.152 -1.84,-5.395 -3.64,-9.723 -1.82,-4.332 -2.72,-7.363 -2.71,-9.094 0.08,-2.718 1.17,-4.824 3.23,-6.304 2.03,-1.469 4.3,-2.035 6.77,-1.703 2.5,0.332 4.52,1.554 6.08,3.699 1.72,2.422 2.51,5.348 2.37,8.785 -0.15,2.547 -0.99,4.762 -2.53,6.637 -0.99,1.234 -3.22,3.105 -6.7,5.617 l -2.87,2.086"
         style="fill:#ffffff;fill-opacity:1;fill-rule:nonzero;stroke:none"
         id="path178" />
      <path
         d="m 963.594,1764.98 c 220.926,0 420.996,-89.98 566.226,-235.22 145.2,-144.89 235.16,-345.37 235.16,-565.971 0,-220.613 -89.96,-421.098 -235.16,-566.348 -145.23,-144.859 -345.3,-234.867 -566.226,-234.867 -220.551,0 -420.614,90.008 -565.824,234.867 -145.211,145.25 -235.196,345.735 -235.196,566.348 0,220.601 89.985,421.081 235.196,565.971 145.21,145.24 345.273,235.22 565.824,235.22 z m 536.956,-264.5 c -137.54,137.57 -327.74,223.18 -536.956,223.18 -208.852,0 -399.043,-85.61 -536.571,-223.18 C 289.492,1362.92 204.266,1173.04 204.266,963.789 204.266,754.527 289.492,564.641 427.023,427.086 564.551,289.16 754.742,203.93 963.594,203.93 c 209.216,0 399.416,85.23 536.956,223.156 137.54,137.555 222.74,327.441 222.74,536.703 0,209.251 -85.2,399.131 -222.74,536.691 v 0"
         style="fill:#f4c824;fill-opacity:1;fill-rule:evenodd;stroke:none"
         id="path180" />
      <path
         d="m 970.18,1555.35 c 322.25,0 585.23,-262.67 585.23,-585.346 0,-322.297 -262.98,-585.363 -585.23,-585.363 -322.602,0 -585.211,263.066 -585.211,585.363 0,322.676 262.609,585.346 585.211,585.346 v 0"
         style="fill:#ed502a;fill-opacity:1;fill-rule:evenodd;stroke:none"
         id="path182" />
      <path
         d="M 963.786,1549.51 1455.003,695.25 H 472.551 l 491.235,854.26 v 0"
         style="fill:#1a5dad;fill-opacity:1;fill-rule:evenodd;stroke:none"
         id="path184" />
      <path
         d="m 447.867,1282.43 -79.734,49.77 16.097,25.59 c 6.219,9.88 10.606,16.11 13.168,18.32 4.032,4.02 9.141,6.2 14.997,6.57 5.847,0.74 12.066,-1.11 18.289,-4.77 5.125,-3.28 8.406,-6.59 10.609,-10.59 2.551,-3.67 3.652,-7.69 3.652,-11.71 0.364,-3.66 0,-7.3 -1.453,-10.61 -1.472,-4.4 -4.402,-10.25 -9.156,-17.2 l -6.578,-10.61 29.992,-18.65 z m -55.961,57.45 22.317,-14.27 5.488,8.78 c 4.027,6.21 6.219,10.97 6.953,13.52 0.359,2.58 0,5.13 -1.105,7.33 -0.735,2.55 -2.559,4.39 -4.743,5.86 -2.933,1.82 -5.867,2.55 -8.785,1.82 -2.922,-0.36 -5.492,-1.82 -7.683,-4.03 -1.469,-1.81 -4.024,-5.47 -7.68,-11.34 z m 103.883,14.99 -72.051,60.36 25.598,30.74 c 6.586,7.69 12.059,12.8 16.098,14.99 4.386,2.58 8.769,3.3 13.898,2.58 5.121,-0.74 9.875,-2.58 13.895,-6.22 5.48,-4.4 8.781,-9.88 9.507,-16.11 0.735,-5.85 -1.093,-12.8 -5.484,-19.75 4.758,1.47 8.781,2.57 12.801,2.93 4.027,0 9.871,-0.36 18.66,-1.84 l 21.203,-2.92 -14.621,-17.2 -24.512,2.56 c -8.414,1.11 -14.258,1.47 -16.824,1.11 -2.547,0 -4.75,-0.73 -6.586,-1.83 -1.816,-1.09 -4.019,-3.3 -6.945,-6.59 l -2.551,-2.92 29.977,-25.26 z m -29.269,49.4 8.781,10.96 c 5.855,6.97 9.512,11.35 10.254,13.56 0.726,2.17 1.09,4.37 0.359,6.57 -0.734,2.21 -2.187,4.39 -4.027,6.21 -2.555,1.84 -5.117,2.94 -7.684,2.94 -2.551,0 -5.121,-1.1 -7.312,-2.94 -1.098,-1.07 -4.391,-4.74 -9.141,-10.61 l -9.512,-11.33 z m 58.894,56.35 c -5.851,7.68 -9.871,14.61 -11.703,21.58 -1.461,5.11 -1.824,10.23 -1.461,15.37 0.367,5.47 1.828,10.23 4.027,14.26 3.286,5.48 7.672,10.96 13.539,15.72 10.59,8.78 21.934,12.08 34.004,10.98 11.703,-1.48 22.313,-8.41 32.192,-20.12 9.5,-11.71 13.527,-23.78 12.797,-35.49 -1.098,-11.71 -6.95,-21.96 -17.551,-30.72 -10.977,-8.79 -22.309,-12.45 -34.028,-10.99 -11.703,1.47 -22.304,8.06 -31.816,19.41 z m 14.633,12.78 c 6.949,-8.04 13.902,-12.78 21.203,-13.89 7.324,-1.46 13.547,0.35 19.766,5.11 5.851,4.78 8.781,10.99 9.14,18.3 0.364,7.3 -2.926,15.01 -9.875,23.41 -6.59,8.42 -13.531,13.19 -20.476,14.26 -6.961,1.1 -13.535,-0.71 -19.758,-5.47 -5.859,-5.13 -9.149,-10.98 -9.512,-18.29 -0.359,-6.95 2.93,-15.01 9.512,-23.43 z m 114.848,28.93 -40.235,66.94 -23.773,-14.28 -8.414,13.54 64.011,38.41 8.411,-13.52 -23.778,-14.28 39.875,-66.95 z m 50.839,31.06 -35.101,87.09 64.367,26.34 5.852,-15 -46.825,-19.03 7.684,-19.03 43.891,17.58 5.855,-14.64 -43.523,-17.56 9.507,-23.79 48.645,19.76 5.852,-14.99 z m 73.524,29.66 -4.762,16.45 30.352,72.09 -42.051,-12.08 -4.383,15.38 66.199,19 4.016,-14.26 -31.816,-75.01 51.203,14.63 4.406,-14.98 z m 84.859,22.3 -16.465,92.56 18.649,3.31 16.461,-92.56 z m 28.52,53.05 c -0.371,9.52 0.379,17.55 2.933,24.15 1.461,4.75 4.383,9.52 7.68,13.54 3.285,4.03 7.313,6.95 11.336,9.16 5.855,2.91 12.437,4.74 20.121,5.1 13.895,1.1 25.231,-2.56 34.031,-10.6 8.77,-7.68 13.891,-19.39 14.985,-34.75 1.086,-15 -2.207,-27.08 -9.879,-36.23 -7.676,-9.14 -18.285,-14.25 -32.196,-15.01 -13.89,-1.07 -25.234,2.21 -34.007,10.25 -8.782,8.06 -13.907,19.41 -15.004,34.39 z m 19.754,1.84 c 0.726,-10.61 3.66,-18.29 8.777,-23.43 5.492,-5.47 11.711,-7.68 19.395,-6.93 7.316,0.36 13.523,3.66 17.914,9.51 4.378,5.49 6.214,13.9 5.48,24.87 -0.727,10.63 -3.648,18.29 -8.773,23.42 -5.11,5.11 -11.332,7.32 -19.391,6.57 -7.676,-0.36 -13.895,-3.65 -18.273,-9.49 -4.403,-5.51 -6.219,-13.55 -5.129,-24.52 z m 89.619,-43.19 11.33,92.94 18.29,-2.2 30.72,-66.95 7.69,62.57 17.2,-2.19 -11.34,-93.29 -19.04,2.19 -29.98,65.47 -7.31,-60.72 z m 94.36,-12.06 25.59,90.37 66.94,-19.41 -4.38,-14.98 -48.64,13.92 -5.86,-20.14 45.39,-12.8 -4.43,-15.37 -45.34,13.18 -6.97,-24.89 50.49,-14.26 -4.37,-15.38 z m 186.91,-36.21 13.54,-13.91 c -7.34,-7.69 -15,-12.08 -23.04,-13.53 -8.05,-1.1 -16.84,0.35 -25.61,5.11 -10.98,5.88 -17.92,14.64 -21.22,25.6 -2.92,11.35 -1.09,23.8 5.87,36.61 7.31,13.89 16.45,22.68 27.77,26.69 10.98,3.67 22.69,2.57 34.02,-3.64 10.25,-5.5 16.83,-12.82 20.11,-21.95 1.85,-5.88 1.85,-12.46 0.37,-20.13 l -18.63,5.12 c 1.08,4.75 1.08,9.13 -0.75,13.54 -1.83,4.02 -5.11,7.3 -9.52,9.51 -6.19,3.29 -12.04,3.66 -18.26,1.45 -6.23,-2.55 -12.09,-8.4 -17.2,-18.29 -5.49,-10.6 -7.7,-19.01 -6.23,-25.61 1.48,-6.21 5.12,-11.34 10.97,-14.26 4.39,-2.56 9.16,-3.29 13.91,-2.2 4.77,1.47 9.16,4.39 13.9,9.89 z m 12.81,-48.66 51.2,78.65 15.72,-10.24 -51.2,-78.65 z m 49.74,-35.86 32.93,94.03 16.09,-12.8 -25.25,-69.16 61.45,39.52 15.72,-12.45 -85.22,-51.95 z m 46.81,-41.33 65.12,67.29 13.9,-13.16 -65.48,-67.32 z m 25.97,-26.71 71.32,60 12.07,-14.65 -59.25,-49.37 30.36,-36.22 -12.06,-10.24 z m 53.79,-55.26 79.73,49.77 36.55,-59.26 -13.14,-8.43 -27.07,43.18 -17.56,-10.98 24.84,-40.24 -13.14,-8.06 -25.24,39.91 -21.58,-13.56 27.81,-44.63 -13.55,-8.42 -37.65,60.72 v 0"
         style="fill:#f4c824;fill-opacity:1;fill-rule:evenodd;stroke:none"
         id="path186" />
      <path
         d="m 1551.03,1387.08 -74.99,-47.2 35.12,-55.97 8.76,5.48 -26.33,42.45 -1.45,2.18 2.19,1.48 21.94,13.52 2.19,1.09 1.11,-2.2 23.79,-37.66 9.11,5.85 -23.76,37.68 -1.46,2.2 2.18,1.44 17.95,10.99 2.18,1.47 1.1,-2.21 25.61,-40.96 9.13,5.85 z m -80.11,-43.92 79.74,49.76 2.19,1.1 1.47,-2.2 36.56,-58.9 1.48,-2.19 -2.21,-1.47 -13.54,-8.41 -2.18,-1.11 -1.1,2.21 -25.6,40.61 -13.18,-8.41 23.41,-37.69 1.49,-2.19 -2.21,-1.47 -13.54,-8.41 -2.18,-1.09 -1.11,2.19 -23.8,37.67 -17.17,-10.96 26.34,-42.07 1.47,-2.2 -2.2,-1.45 -13.52,-8.44 -2.21,-1.46 -1.46,2.19 -37.67,60.73 -1.47,2.19 z m 18.65,109.4 -67.3,-56.34 39.13,-46.83 8.05,6.95 -28.52,34.03 -1.82,1.83 2.19,1.82 57.04,47.93 z m -72.79,-54.14 71.33,59.63 2.18,1.81 1.49,-1.81 12.43,-14.64 1.45,-2.2 -1.83,-1.46 -57.44,-47.93 28.91,-34.4 1.49,-1.81 -1.86,-1.83 -12.05,-9.88 -2.2,-1.83 -1.48,2.2 -42.42,50.49 -1.82,1.82 z m 40.98,88.16 -61.45,-63.65 9.87,-9.51 61.81,63.64 z m -66.95,-62.19 65.09,67.68 1.86,1.83 1.82,-1.83 13.53,-13.18 2.19,-1.83 -1.83,-1.83 -65.48,-67.3 -1.81,-1.83 -1.83,1.47 -13.54,13.16 -1.83,1.82 z m -10.99,129.51 -31.08,-88.91 12.81,-10.24 80.48,49.03 -10.98,9.14 -60.34,-38.78 -6.23,-4.03 2.57,7.31 24.49,67.33 z m -36.55,-88.91 32.91,94.41 1.47,3.27 2.55,-2.18 16.11,-13.17 1.46,-1.11 -0.74,-1.82 -22.32,-61.47 54.87,35.13 1.47,1.08 1.47,-1.08 15.72,-12.8 2.94,-2.21 -3.3,-1.81 -85.23,-51.96 -1.45,-0.75 -1.47,1.11 -15.73,12.81 -1.47,1.1 z m 4.73,110.48 -48.26,-74.63 11.34,-7.32 48.28,74.28 z m -54.12,-73.9 51.23,78.67 1.46,2.19 2.17,-1.47 15.74,-10.24 2.19,-1.45 -1.45,-2.21 -51.2,-78.65 -1.47,-2.2 -1.85,1.47 -16.09,10.25 -2.18,1.46 z m -0.72,33.3 -9.88,10.24 c -1.85,-2.19 -3.65,-3.65 -5.49,-4.75 -2.56,-1.83 -5.11,-3.31 -8.03,-3.66 -2.58,-0.73 -5.13,-1.09 -7.69,-0.73 -2.59,0.36 -5.13,1.46 -7.7,2.56 v 0 c -3.29,1.83 -6.2,4.03 -8.03,6.96 v 0 c -2.21,2.56 -3.66,5.85 -4.42,9.5 v 0 c -0.7,3.66 -0.7,7.68 0.4,12.07 1.09,4.76 3.29,9.51 6.21,15.01 v 0 c 2.55,5.11 5.48,9.15 8.41,12.45 3.3,3.28 6.6,5.84 9.9,6.94 v 0 c 3.63,1.47 6.94,2.2 10.22,1.83 3.67,-0.36 6.96,-1.47 10.61,-3.3 v 0 c 2.21,-1.1 4.38,-2.56 6.21,-4.4 1.83,-1.83 3.32,-4 4,-6.57 1.11,-2.2 1.86,-4.75 1.86,-7.32 0,-1.46 0,-3.29 -0.37,-5.13 l 13.54,-3.64 c 0.38,2.54 0.73,5.12 0.73,7.68 0,2.91 -0.73,5.48 -1.45,8.05 v 0 c -1.49,4.4 -3.68,8.39 -6.96,11.7 -2.94,3.65 -6.96,6.58 -11.69,9.14 v 0 c -5.5,2.93 -11,4.77 -16.48,5.12 -5.11,0.73 -10.22,0 -15.72,-1.83 -5.14,-1.83 -9.88,-4.75 -14.27,-9.13 -4.39,-4.03 -8.43,-9.54 -12.05,-16.1 -3.31,-6.22 -5.5,-12.45 -6.24,-18.29 v 0 c -1.1,-5.5 -0.73,-10.98 0.74,-16.46 1.45,-5.13 3.65,-9.89 6.95,-13.92 3.28,-4.02 7.66,-7.3 12.8,-10.24 v 0 c 4.41,-2.2 8.4,-3.67 12.43,-4.39 4.03,-0.74 7.68,-0.74 11.72,-0.36 v 0 c 3.64,0.72 7.31,2.19 10.96,4.03 2.92,1.83 5.84,4 8.78,6.94 z m -8.05,15.73 13.52,-13.9 1.84,-1.83 -1.84,-1.83 c -3.65,-4.02 -7.65,-6.95 -11.7,-9.52 -4.39,-2.54 -8.39,-4 -12.78,-4.75 v 0 c -4.39,-0.72 -8.8,-0.36 -13.56,0.36 -4.39,1.11 -9.13,2.56 -13.52,5.13 v 0 c -5.85,2.92 -10.6,6.97 -14.25,11.35 -4.04,4.75 -6.61,9.88 -8.43,16.09 -1.47,5.86 -1.82,12.07 -0.74,18.66 v 0 c 1.11,6.21 3.3,12.81 6.98,19.76 3.64,6.93 8.01,12.81 12.78,17.56 5.12,4.39 10.27,8.05 16.45,9.87 5.87,2.21 11.71,2.93 17.93,2.21 5.85,-0.74 12.09,-2.58 18.3,-5.87 v 0 c 5.11,-2.93 9.5,-6.21 13.16,-9.88 3.66,-4.02 6.21,-8.42 7.68,-13.53 v 0 c 1.11,-2.92 1.82,-6.21 1.82,-9.87 0,-3.66 -0.35,-7.32 -1.09,-11.34 l -0.73,-2.57 -2.57,0.74 -18.65,4.75 -2.55,0.74 0.72,2.54 c 0.73,1.83 0.73,4.03 0.73,5.87 0,2.18 -0.73,4.01 -1.45,5.84 -0.73,1.84 -1.83,3.3 -2.94,4.77 -1.45,1.47 -3.29,2.57 -5.11,3.64 v 0 c -2.94,1.46 -5.48,2.21 -8.41,2.57 -2.55,0 -5.13,-0.36 -8.04,-1.46 v 0 c -2.59,-1.11 -5.12,-2.94 -7.7,-5.48 -2.91,-2.93 -5.49,-6.95 -8.04,-11.72 v 0 c -2.56,-5.11 -4.39,-9.5 -5.47,-13.53 -1.11,-3.66 -1.11,-7.32 -0.38,-9.88 v 0 c 0.38,-2.94 1.82,-5.49 3.29,-7.68 v 0 c 1.47,-1.83 3.65,-3.66 6.58,-5.13 v 0 c 1.81,-1.1 3.65,-1.82 5.85,-2.19 1.84,0 4.05,0 5.87,0.37 2.18,0.72 4.02,1.46 6.2,2.93 2.2,1.46 4.42,3.66 6.57,6.21 l 1.85,1.83 z m -161.31,121.47 -24.49,-85.25 63.64,-18.29 2.91,10.24 -47.91,13.92 -2.55,0.73 0.74,2.17 7.29,24.89 0.73,2.2 2.21,-0.73 42.79,-12.07 2.93,10.24 -42.81,12.06 -2.19,0.74 0.75,2.55 5.46,20.12 0.74,2.57 2.56,-0.74 46.09,-13.53 2.93,10.61 z m -29.98,-86.35 25.6,90.37 0.73,2.56 2.54,-0.74 66.96,-19.38 2.56,-0.73 -0.73,-2.55 -4.39,-15.01 -0.72,-2.56 -2.57,0.72 -46.1,13.19 -4.4,-15.01 42.79,-12.44 2.58,-0.72 -0.74,-2.19 -4.38,-15.37 -0.74,-2.57 -2.54,0.72 -42.82,12.44 -5.49,-19.75 47.94,-13.53 2.55,-0.74 -0.74,-2.56 -4.37,-15.37 -0.75,-2.19 -2.54,0.74 -68.42,19.38 -2.54,0.74 z m -78.28,101.7 -10.61,-88.17 12.45,-1.45 6.93,58.15 1.11,9.17 4.02,-8.42 29.26,-64.01 14.99,-1.84 10.61,87.8 -12.05,1.83 -7.34,-59.64 -1.09,-9.13 -4.02,8.05 -29.63,65.85 z m -16.091,-89.99 11.341,92.92 0.37,2.58 h 2.55 l 18.3,-2.58 h 1.47 l 0.7,-1.46 26.72,-58.53 6.21,53.05 0.35,2.56 h 2.58 l 17.56,-2.19 2.55,-0.37 -0.36,-2.56 -11.34,-93.29 -0.38,-2.57 -2.55,0.36 -18.66,2.21 -1.44,0.37 -0.74,1.09 -26.35,57.06 -6.19,-51.56 -0.38,-2.57 -2.56,0.36 -17.57,2.21 -2.552,0.35 z m -32.922,46.83 z m -26.332,-31.83 z m -30.73,27.81 z m 3.301,-14.65 c -1.828,4.04 -2.922,8.8 -3.301,14.65 v 0 0 c -0.356,5.47 0,10.24 1.098,14.65 v 0 c 0.738,4.74 2.554,8.4 5.128,11.69 2.555,2.91 5.477,5.49 8.774,7.31 3.293,1.83 6.953,2.57 11.328,2.94 4.402,0.35 8.059,0 11.711,-1.47 3.664,-1.11 6.582,-2.93 9.508,-5.87 v 0 c 2.926,-2.91 5.136,-6.2 6.582,-10.6 1.461,-4 2.574,-9.14 2.933,-14.63 v 0 0 c 0.375,-5.49 0,-10.61 -0.734,-14.99 -1.102,-4.77 -2.938,-8.43 -5.117,-11.72 -2.555,-3.28 -5.492,-5.48 -8.778,-7.31 v 0 c -3.296,-1.83 -6.945,-2.94 -11.335,-2.94 v 0 c -4.032,-0.36 -7.684,0 -11.348,1.47 -3.652,1.11 -6.953,3.3 -9.875,5.85 -2.926,2.93 -5.117,6.61 -6.574,10.97 z m 2.179,14.65 c 0.371,-4.77 1.106,-9.15 2.575,-12.82 1.457,-3.64 3.289,-6.58 5.48,-8.76 2.563,-2.57 5.117,-4.04 8.047,-5.12 2.551,-1.11 5.851,-1.47 9.148,-1.11 v 0 0 c 3.657,0 6.582,1.11 9.141,2.19 v 0 c 2.922,1.47 5.113,3.67 6.949,6.22 2.192,2.58 3.653,5.85 4.391,9.52 0.738,4.03 1.097,8.41 0.738,13.53 v 0 c -0.375,5.12 -1.105,9.52 -2.566,13.16 -1.473,3.66 -3.289,6.6 -5.489,8.79 v 0 c -2.191,2.2 -4.757,3.65 -7.683,4.76 -2.914,1.1 -5.848,1.47 -9.504,1.1 -3.652,-0.37 -6.582,-1.1 -9.512,-2.57 -2.558,-1.45 -5.133,-3.29 -6.949,-5.84 -1.832,-2.58 -3.297,-5.49 -4.02,-9.51 v 0 c -1.105,-3.66 -1.105,-8.07 -0.746,-13.18 z m -19.375,10.97 c -0.371,-4.03 -0.371,-8.03 -0.371,-12.81 v 0 c 0.735,-7.31 2.196,-13.52 4.395,-19.01 2.195,-5.12 5.484,-9.89 9.871,-13.53 v 0 c 4.035,-3.68 8.781,-6.23 13.902,-8.06 5.496,-1.47 11.34,-2.21 18.281,-1.47 6.582,0.37 12.079,1.83 17.2,4.03 5.109,2.57 9.152,5.85 12.804,9.88 3.657,4.38 6.219,9.52 7.692,14.99 1.445,5.86 2.172,12.45 1.812,19.77 -0.73,7.3 -2.195,13.53 -4.386,19.01 -2.571,5.48 -5.852,10.24 -9.868,13.9 -4.047,3.65 -8.781,6.59 -14.273,8.06 -5.125,1.82 -11.332,2.19 -17.922,1.82 -3.66,-0.37 -6.949,-0.74 -10.242,-1.46 -2.938,-0.72 -5.852,-1.83 -8.414,-3.29 v 0 c -2.199,-1.09 -4.016,-2.19 -5.848,-3.66 -1.828,-1.47 -3.293,-3.29 -5.125,-5.13 -1.465,-1.82 -2.93,-3.65 -4.027,-5.84 -1.457,-2.2 -2.192,-4.4 -3.289,-6.59 v 0 c -1.098,-3.29 -1.828,-6.93 -2.192,-10.61 z m -5.484,-13.16 c -0.371,4.74 0,9.49 0.363,13.9 0.367,4 1.106,8.04 2.567,11.34 v 0.36 c 0.718,2.56 2.183,4.76 3.289,7.31 1.457,2.19 3.289,4.76 4.746,6.59 v 0 c 1.836,2.2 4.027,4.01 5.859,5.86 2.199,1.45 4.391,2.92 6.59,4.01 v 0 c 2.914,1.83 6.211,2.93 9.867,3.68 3.293,1.09 7.305,1.45 10.965,1.83 7.316,0.72 13.898,0 19.754,-1.83 6.223,-1.85 11.707,-5.13 16.469,-9.15 4.379,-4.4 8.406,-9.52 10.961,-15.74 2.554,-6.22 4.015,-13.16 4.761,-20.85 0.364,-8.06 0,-15 -1.816,-21.58 -1.832,-6.23 -4.777,-11.71 -8.797,-16.84 -4.012,-4.76 -8.762,-8.41 -14.625,-11.35 -5.48,-2.53 -12.07,-4 -19.019,-4.74 -7.313,-0.37 -13.903,0.37 -20.122,2.21 -5.847,1.81 -11.335,4.74 -16.082,9.12 v 0 c -4.765,4.03 -8.421,9.16 -10.976,15.37 -2.574,5.87 -4.024,12.81 -4.754,20.5 z m -39.504,37.67 15.719,-87.43 13.539,2.56 -15.371,87.06 z m 10.965,-90.73 -16.449,92.19 -0.375,2.57 2.566,0.73 18.652,3.3 2.567,0.36 0.363,-2.58 16.457,-92.54 0.36,-2.57 -2.547,-0.36 -18.672,-3.28 -2.551,-0.38 z m -84.484,-5.49 3.648,-13.16 68.398,19.75 -2.914,10.24 -48.652,-14.26 -5.484,-1.46 2.195,5.11 31.816,74.27 -3.289,10.61 -61.086,-17.55 2.93,-10.26 39.5,11.35 5.488,1.45 -2.191,-4.75 z m -0.372,-17.19 -4.753,16.46 -0.364,1.1 0.364,0.74 28.535,66.93 -36.942,-10.24 -2.199,-0.72 -0.719,2.19 -4.402,15.37 -0.727,2.56 2.551,0.72 65.84,19.04 2.566,0.72 0.727,-2.54 4.035,-14.28 0.36,-0.73 -0.36,-1.1 -30.004,-69.87 46.09,13.16 2.559,0.73 0.734,-2.56 4.387,-15 0.726,-2.56 -2.558,-0.73 -73.512,-21.21 -2.199,-0.74 z m -102.777,56.71 33.289,-81.97 61.438,24.54 -4.016,9.87 -46.449,-18.65 -2.196,-0.76 -1.101,2.21 -9.508,23.79 -1.098,2.56 2.559,0.73 41.336,16.82 -4.027,9.88 -41.328,-16.82 -2.555,-1.1 -0.735,2.57 -7.687,19.38 -1.098,2.2 2.196,1.08 44.629,17.94 -4.028,9.89 z m 29.258,-86.33 -35.109,87.07 -0.727,2.19 2.191,1.1 64.735,25.96 2.203,1.11 1.098,-2.58 5.847,-14.62 1.102,-2.56 -2.559,-0.73 -44.625,-17.92 5.844,-14.66 41.34,16.84 2.554,0.73 0.735,-2.19 6.215,-14.63 0.726,-2.57 -2.187,-1.11 -41.332,-16.44 7.687,-19.03 46.086,18.65 2.551,1.11 0.734,-2.56 5.852,-14.63 1.109,-2.2 -2.566,-1.09 -65.844,-26.7 -2.559,-1.11 z m -86.317,38.03 38.778,-64.76 12.058,7.33 -39.132,64.39 -1.09,2.19 2.183,1.47 21.586,12.78 -5.488,9.54 -59.617,-35.86 5.476,-9.15 21.586,12.81 2.192,1.47 z m 35.844,-69.49 -38.765,64.38 -21.942,-12.8 -2.195,-1.47 -1.102,2.18 -8.414,13.92 -1.101,2.19 2.199,1.09 64.004,38.41 2.195,1.48 1.098,-2.2 8.41,-13.54 1.105,-2.18 -2.191,-1.47 -21.594,-13.17 38.782,-64.41 1.464,-2.18 -2.207,-1.47 -16.445,-9.87 -2.199,-1.09 z M 548.82,1461.69 c -3.652,2.57 -7.308,5.87 -10.601,10.25 v 0 c -3.66,4.39 -6.227,8.41 -8.043,12.81 -1.465,4.02 -2.567,8.41 -2.199,12.08 v 0 c 0,4.01 1.097,7.68 2.921,10.97 v 0.37 c 1.832,3.29 4.395,6.22 7.692,8.77 v 0 c 3.277,2.94 6.578,4.75 10.23,5.5 3.657,1.08 7.325,1.46 11.34,0.72 v 0 c 4.024,-0.72 7.676,-2.18 11.344,-4.75 3.656,-2.56 7.312,-5.85 10.969,-10.24 3.66,-4.39 6.222,-8.78 8.047,-13.18 1.472,-4.01 2.558,-8.41 2.191,-12.43 0,-4.03 -1.102,-7.69 -2.914,-10.99 -1.465,-3.27 -4.027,-6.21 -7.324,-8.77 v 0 c -3.293,-2.56 -6.582,-4.39 -10.239,-5.48 -3.66,-1.1 -7.316,-1.1 -11.343,-0.38 v 0 c -4.02,0.38 -8.047,2.21 -12.071,4.75 z m -6.574,13.54 c 3.281,-4.02 6.203,-6.93 9.504,-9.13 3.289,-2.2 6.59,-3.66 9.879,-4.03 v 0 c 3.289,-0.74 6.207,-0.38 9.141,0.37 2.921,0.72 5.851,2.18 8.41,4.38 v 0 c 2.57,2.2 4.761,4.39 6.226,7.32 1.09,2.56 2.192,5.49 2.192,8.78 0,3.29 -0.731,6.6 -2.192,10.24 -1.465,3.67 -3.656,7.68 -6.961,11.71 -3.285,4.03 -6.582,6.96 -9.871,9.15 -2.918,2.2 -6.219,3.66 -9.14,4.03 v 0 c -3.289,0.72 -6.223,0.36 -9.149,-0.37 -2.922,-0.74 -5.855,-2.56 -8.418,-4.76 v 0 c -2.914,-2.2 -5.113,-4.75 -6.203,-7.31 h -0.371 c -1.105,-2.57 -2.203,-5.49 -2.203,-8.78 v 0 c 0,-3.31 0.375,-6.61 1.836,-10.25 1.828,-3.66 4.027,-7.31 7.32,-11.35 z m 15.356,-31.45 z m 48.648,39.5 z m 0,0 z m -42.066,57.81 z m -43.891,-68.05 c 1.828,-3.64 4.395,-6.94 7.316,-10.6 v 0 c 4.383,-5.5 9.145,-9.88 14.258,-13.17 4.762,-2.93 10.25,-4.76 15.735,-5.49 v 0 0 c 5.488,-0.74 10.609,-0.37 16.089,1.45 5.489,1.83 10.614,4.76 15.735,9.16 5.117,4.02 9.14,8.41 11.707,13.17 2.922,4.76 4.379,9.86 5.117,15.72 v 0 0 c 0.363,5.49 -0.367,10.99 -2.555,16.48 -1.836,5.85 -5.129,11.34 -9.89,17.18 -4.379,5.5 -9.5,9.89 -14.625,13.18 -5.117,2.92 -10.231,5.11 -15.727,5.49 v 0 c -5.484,0.72 -10.976,0.36 -16.457,-1.47 -5.129,-1.45 -10.598,-4.38 -15.73,-8.8 -2.555,-2.18 -5.125,-4.75 -7.317,-6.93 -2.191,-2.56 -4.027,-5.12 -5.117,-7.69 v 0 c -1.094,-2.2 -2.199,-4.02 -2.555,-6.21 -0.734,-2.18 -1.101,-4.75 -1.464,-6.94 v 0 c 0,-2.58 0,-5.14 0,-7.35 0.363,-2.54 0.73,-5.11 1.464,-7.3 v 0 c 0.735,-3.29 2.188,-6.59 4.016,-9.88 z m 3.293,-13.89 c -3.293,3.65 -5.848,7.67 -8.043,11.35 -1.832,3.64 -3.293,7.3 -4.395,10.95 v 0 c -0.726,2.94 -1.097,5.5 -1.457,8.07 -0.375,2.91 -0.375,5.47 0,8.41 v 0 c 0.36,2.91 0.731,5.47 1.457,8.03 0.739,2.56 1.836,4.76 2.93,6.96 v 0 c 1.832,3.3 3.66,5.85 5.844,8.77 2.57,2.57 5.133,5.14 8.414,7.7 5.488,4.75 11.344,8.04 17.191,9.86 5.856,1.84 12.075,2.57 18.293,1.84 0,0 0,0 0.364,0 v 0 c 6.218,-1.1 12.07,-2.93 17.918,-6.59 5.496,-3.64 10.976,-8.41 15.726,-14.62 5.129,-5.86 8.785,-12.08 10.981,-18.31 2.203,-6.2 2.929,-12.41 2.562,-19.01 v 0 c -0.73,-6.23 -2.562,-12.06 -5.488,-17.57 -3.289,-5.13 -7.672,-10.24 -13.172,-14.63 -5.844,-4.77 -11.332,-8.05 -17.551,-9.86 -5.847,-2.21 -12.07,-2.57 -18.289,-1.85 v 0 c -6.219,0.75 -12.07,2.92 -17.918,6.21 -5.488,3.3 -10.617,8.06 -15.367,14.29 z m -57.426,-51.22 7.309,8.77 c 2.929,3.66 5.125,6.23 6.957,8.78 1.031,1.3 2.023,2.79 2.562,4.38 1.032,2.1 0.992,4.17 0.231,5.8 -0.672,1.44 -1.946,2.5 -3.164,3.74 -1.258,1.28 -3.989,2.55 -5.852,2.55 -2.16,0 -4.574,-1.31 -5.855,-2.55 -3.071,-3.05 -5.918,-6.64 -8.774,-9.9 l -7.683,-9.51 z m 11.34,5.49 -9.152,-10.63 -1.457,-2.18 -2.192,1.82 -18.281,15.37 -1.832,1.45 10.969,13.54 c 2.55,2.57 4.39,5.14 6.211,6.96 1.031,1.28 2.132,2.51 3.308,3.66 2.625,1.99 5.742,3.65 9.129,3.65 v 0 0 c 1.469,0 3.297,-0.36 4.766,-0.72 1.457,-0.75 2.918,-1.48 4.383,-2.93 1.461,-1.1 2.203,-2.2 3.293,-3.29 0.726,-1.08 1.457,-2.55 1.835,-4.02 0.352,-1.1 0.352,-2.56 0.352,-4.03 0,-3.42 -2.48,-7.21 -4.379,-9.87 z m 32.191,13.52 z m -82.296,-11.33 68.023,-57.08 8.785,10.6 -27.805,23.79 -2.195,1.47 1.836,2.19 2.191,2.92 c 1.469,1.47 2.926,2.93 4.024,4.04 v 0.36 c 1.473,1.09 2.559,1.83 3.66,2.56 v 0 c 1.094,0.74 2.566,1.11 3.656,1.47 1.457,0.36 2.926,0.72 4.387,0.72 1.461,0.39 3.66,0 6.223,0 2.933,-0.36 6.582,-0.72 10.968,-1.08 l 23.04,-2.58 10.98,12.81 -16.832,2.19 v 0 c -4.016,0.74 -7.676,1.1 -10.969,1.47 -2.929,0 -5.48,0.37 -7.316,0 v 0 c -1.824,0 -3.649,-0.37 -5.485,-0.73 -2.199,-0.37 -4.015,-1.1 -6.214,-1.82 l -6.942,-2.21 3.649,6.23 c 2.191,3.29 3.648,6.57 4.394,9.5 0.727,2.93 1.098,5.86 0.727,8.42 v 0 c -0.367,2.93 -1.473,5.49 -2.563,7.67 -1.469,2.57 -3.285,4.77 -5.855,6.61 -2.192,1.81 -4.02,3.28 -6.207,4.02 -2.203,1.09 -4.399,1.47 -6.586,1.81 v 0 c -2.199,0.37 -4.399,0.37 -6.219,0 -2.191,-0.34 -4.027,-1.1 -5.859,-2.19 -2.192,-1.08 -4.391,-2.91 -6.946,-5.11 -2.554,-2.57 -5.488,-5.5 -8.422,-9.52 z m 66.562,-62.57 -71.691,60.38 -2.196,1.45 1.832,2.2 25.606,30.37 c 3.293,4.01 6.215,7.31 9.144,9.88 2.559,2.54 5.114,4.75 7.676,5.84 2.192,1.46 4.754,2.57 7.324,2.94 2.551,0.36 5.118,0.36 8.047,0 v 0 c 2.926,-0.37 5.481,-1.11 8.043,-2.2 2.563,-1.1 5.113,-2.57 7.317,-4.75 2.925,-2.21 5.121,-5.13 6.949,-8.06 1.824,-2.93 2.926,-6.23 3.289,-9.52 v 0 c 0.363,-3.28 0.363,-6.94 -0.731,-10.61 -0.363,-1.81 -1.097,-3.28 -1.832,-5.1 0,0 0.379,0 0.735,0 2.191,0.36 4.383,0.72 6.222,1.08 v 0 0 c 2.196,0 4.747,0 8.047,-0.36 2.922,-0.36 6.95,-0.72 11.336,-1.46 v 0 l 21.211,-2.92 4.754,-0.74 -2.922,-3.32 -14.625,-17.53 -1.094,-1.11 -1.105,0.36 -24.512,2.57 c -4.379,0.36 -7.668,0.75 -10.968,1.11 -2.563,0 -4.395,0 -5.856,0 -1.102,0 -1.82,0 -2.93,-0.36 -0.722,-0.39 -1.82,-0.75 -2.547,-1.11 v 0 c -0.738,-0.36 -1.472,-1.1 -2.566,-2.21 v 0 c -1.101,-1.07 -2.187,-2.18 -3.66,-4 l -0.734,-0.73 28.171,-23.42 1.821,-1.83 -1.461,-1.83 -12.434,-14.63 -1.469,-2.19 z m -80.828,-29.62 -22.68,14.25 -2.203,1.11 1.465,2.18 4.766,8.06 v 0 c 1.824,2.57 3.293,5.13 4.746,6.96 1.101,2.18 2.207,3.65 3.3,4.39 v 0 0 0 0 c 1.094,1.47 2.555,2.55 4.016,3.28 1.469,1.1 3.293,1.48 4.754,1.85 v 0 c 1.836,0.36 3.656,0.36 5.484,0 v 0 c 1.832,-0.37 3.664,-1.11 5.125,-2.21 1.465,-1.09 2.559,-1.82 3.657,-2.92 1.105,-1.1 1.836,-2.58 2.57,-4.03 v 0 c 0.719,-1.47 1.086,-2.92 1.086,-4.39 0.367,-1.46 0,-2.93 0,-4.4 -0.367,-1.81 -1.086,-3.65 -2.551,-6.2 v 0 c -1.105,-2.21 -2.566,-5.15 -4.762,-8.43 v 0 l -5.488,-8.78 -1.098,-2.19 z m -17.922,17.18 18.281,-11.34 4.024,6.6 v 0 c 2.199,2.92 3.66,5.83 4.754,7.68 v 0 c 0.734,2.2 1.472,3.67 1.832,4.77 0,1.08 0,2.18 0,3.28 0,0.73 -0.36,1.83 -0.731,2.56 v 0 c -0.367,1.09 -1.101,1.83 -1.465,2.56 -0.73,0.71 -1.461,1.45 -2.554,2.18 -1.106,0.74 -2.571,1.11 -3.664,1.48 v 0 c -1.102,0.36 -2.196,0.36 -3.289,0 v 0 c -1.102,0 -2.2,-0.37 -3.286,-1.1 -1.101,-0.74 -1.839,-1.48 -2.937,-2.19 v 0 c -0.731,-0.74 -1.457,-2.21 -2.922,-4.04 -1.105,-1.81 -2.559,-4.02 -4.398,-6.94 v 0 z m 0.356,37.31 v 0.38 z m -23.77,-44.99 75.352,-47.2 7.312,11.71 -28.164,17.57 -2.195,1.46 1.461,2.2 6.589,10.24 c 2.188,3.66 4.024,6.96 5.844,9.88 1.465,2.57 2.559,5.12 3.301,7.32 v 0 c 0.363,1.45 0.727,2.92 1.098,4.39 0,1.46 0.355,3.29 0,5.12 v 0 c 0,1.81 -0.371,3.66 -0.735,5.12 v 0 c -0.73,1.83 -1.465,3.66 -2.566,5.49 v 0 c -0.723,1.45 -2.188,3.28 -3.652,4.75 -1.833,1.46 -3.657,3.29 -5.856,4.76 -2.918,1.84 -5.844,2.95 -8.766,3.65 -2.933,0.75 -5.5,1.1 -8.054,0.75 -2.93,0 -5.121,-0.75 -7.321,-1.84 -2.191,-0.72 -4.394,-2.18 -6.218,-4.03 v 0 c -1.086,-1.09 -2.922,-2.94 -4.746,-5.85 -2.204,-3.28 -5.125,-6.94 -8.051,-12.07 z m 74.625,-52.68 -79.75,49.76 -2.188,1.09 1.458,2.2 16.101,25.98 c 3.285,4.76 5.852,8.78 8.055,12.05 2.179,3.31 4.015,5.52 5.469,6.59 0,0 0,0 0,0.38 v 0 c 2.574,1.84 4.761,3.66 7.687,4.77 2.563,1.08 5.859,2.17 8.781,2.17 3.285,0.38 6.578,0 10.235,-0.72 3.293,-1.09 6.582,-2.56 9.882,-4.38 2.555,-1.84 4.754,-3.66 6.942,-5.5 1.836,-1.83 3.301,-3.66 4.754,-5.86 v 0 c 1.101,-2.21 1.84,-4.38 2.574,-6.57 v 0 c 0.727,-2.2 1.09,-4.04 1.449,-6.22 v 0 c 0,-2.2 0,-4.39 -0.359,-6.22 -0.363,-1.85 -0.746,-3.66 -1.461,-5.49 v 0 c -0.738,-2.2 -2.203,-5.13 -3.656,-8.07 -1.465,-2.91 -3.661,-6.2 -5.868,-9.86 l -5.121,-8.41 27.809,-17.2 2.184,-1.46 -1.45,-2.2 -9.871,-16.11 -1.461,-2.19 -2.195,1.47 v 0"
         style="fill:#ffffff;fill-opacity:1;fill-rule:nonzero;stroke:none"
         id="path188" />
      <g
         id="g405"
         transform="translate(-13.541998)">
        <path
           d="M 867.098,661.551 H 1087.54 V 441.043 H 867.098 v 220.508 0"
           style="fill:#199157;fill-opacity:1;fill-rule:evenodd;stroke:none"
           id="path190" />
        <path
           d="m 1008.22,581.957 c -6.23,-2.562 -10.259,-8.629 -10.259,-15.336 0,-9.16 7.429,-16.605 16.609,-16.605 2.18,0 4.27,0.382 6.27,1.218 l 0.09,0.051 c 2.84,1.176 5.88,1.785 8.97,1.785 12.96,0 23.5,-10.531 23.5,-23.5 0,-12.949 -10.54,-23.5 -23.5,-23.5 -9.48,0 -18.06,5.739 -21.68,14.528 l -0.05,0.086 c -2.56,6.203 -8.627,10.257 -15.354,10.257 -9.16,0 -16.586,-7.453 -16.586,-16.601 0,-2.184 0.415,-4.332 1.262,-6.356 v -0.043 c 1.176,-2.855 1.774,-5.878 1.774,-8.941 0,-12.98 -10.524,-23.48 -23.481,-23.48 -12.965,0 -23.48,10.5 -23.48,23.48 0,9.473 5.715,18.055 14.5,21.684 l 0.031,0.031 c 6.207,2.562 10.211,8.613 10.211,15.301 0,9.195 -7.442,16.632 -16.598,16.632 -2.191,0 -4.301,-0.418 -6.324,-1.265 l -0.043,-0.012 c -2.852,-1.195 -5.898,-1.777 -8.98,-1.777 -12.969,0 -23.489,10.511 -23.489,23.484 0,12.973 10.52,23.469 23.489,23.469 9.496,0 18.062,-5.699 21.703,-14.477 v 0 c 2.566,-6.218 8.609,-10.257 15.332,-10.257 9.156,0 16.605,7.437 16.605,16.605 0,2.176 -0.422,4.348 -1.25,6.367 -1.191,2.836 -1.808,5.887 -1.808,8.985 0,12.953 10.535,23.472 23.496,23.472 12.96,0 23.48,-10.519 23.48,-23.472 0,-9.508 -5.72,-18.071 -14.49,-21.7 l 0.05,-0.113 v 0"
           style="fill:#ffffff;fill-opacity:1;fill-rule:evenodd;stroke:none"
           id="path192" />
      </g>
    </g>
  </g>
</svg>
